Coordinates
version=1
nRows=37
nColumns=30
inDegrees=yes

Units are S.I. units (second, meters, Newtons, ...)
Angles are in degrees.

endheader
time	floatyaw	floatroll	floatpitch	floatx	floaty	floatz	pro_sup_l	deviation_l	flexion_l	cmc_flexion_l	cmc_abduction_l	mp_flexion_l	ip_flexion_l	2mcp_flexion_l	2mcp_abduction_l	2pm_flexion_l	2md_flexion_l	3mcp_flexion_l	3mcp_abduction_l	3pm_flexion_l	3md_flexion_l	4mcp_flexion_l	4mcp_abduction_l	4pm_flexion_l	4md_flexion_l	5mcp_flexion_l	5mcp_abduction_l	5pm_flexion_l	5md_flexion_l
-0.495000	3.029614	-4.103828	101.268469	-0.102142	-0.208177	-0.044886	84.155564	1.696866	0.393423	14.739036	1.667979	-23.349668	-36.243844	38.890824	7.250644	51.118182	33.833837	25.245343	4.698845	49.011167	30.639262	15.476593	-4.476052	61.785572	40.054670	9.210781	-8.484482	60.006152	39.737114
-0.485000	3.029614	-4.103828	101.268469	-0.102100	-0.208091	-0.044844	84.186905	1.656451	0.463165	14.738616	1.716638	-23.356147	-36.248012	38.868047	7.260909	51.087218	33.818668	25.197072	4.719035	49.017039	30.653831	15.463652	-4.488653	61.829731	40.082065	9.262692	-8.514363	60.087149	39.770667
-0.475000	3.029614	-4.103828	101.268469	-0.102034	-0.207973	-0.044782	84.242563	1.612367	0.556074	14.758483	1.792609	-23.355922	-36.254963	38.800448	7.261794	51.034827	33.793470	25.148417	4.732840	49.021602	30.666485	15.435944	-4.494644	61.877462	40.114357	9.332388	-8.544046	60.182701	39.806057
-0.465000	3.029614	-4.103828	101.268469	-0.101928	-0.207783	-0.044684	84.337831	1.567799	0.691587	14.804537	1.922437	-23.344018	-36.264278	38.700286	7.243439	50.971689	33.762370	25.093785	4.737695	49.059305	30.699024	15.389864	-4.487515	61.943992	40.158122	9.436937	-8.579857	60.276159	39.832119
-0.455000	3.029614	-4.103828	101.268469	-0.101761	-0.207467	-0.044529	84.492017	1.527099	0.897026	14.874169	2.132711	-23.312785	-36.268919	38.584632	7.202416	50.910883	33.730868	25.024273	4.739836	49.166705	30.777311	15.327904	-4.466414	62.051397	40.221583	9.608789	-8.640493	60.346929	39.835729
-0.445000	3.029614	-4.103828	101.268469	-0.101510	-0.206967	-0.044302	84.727413	1.494797	1.202063	14.954512	2.440186	-23.254017	-36.254732	38.466827	7.147107	50.865849	33.705647	24.937366	4.754208	49.369783	30.922489	15.261038	-4.438458	62.221371	40.311491	9.891189	-8.752567	60.377329	39.806324
-0.435000	3.029614	-4.103828	101.268469	-0.101141	-0.206227	-0.043990	85.068734	1.473403	1.631956	15.029385	2.840531	-23.161530	-36.203763	38.348661	7.097098	50.850503	33.695067	24.847587	4.797809	49.670678	31.140070	15.206931	-4.416649	62.463683	40.428773	10.325688	-8.939638	60.360308	39.740755
-0.425000	3.029614	-4.103828	101.268469	-0.100604	-0.205198	-0.043575	85.541525	1.459964	2.202746	15.094854	3.299780	-23.032410	-36.100706	38.213964	7.074470	50.878697	33.708693	24.790119	4.878791	50.037961	31.410595	15.184623	-4.414065	62.764079	40.564013	10.935214	-9.207365	60.302577	39.645041
-0.415000	3.029614	-4.103828	101.268469	-0.099821	-0.203831	-0.043021	86.166636	1.443082	2.919801	15.176893	3.755870	-22.865936	-35.940011	38.024434	7.089278	50.960351	33.754715	24.811246	4.987304	50.406784	31.687829	15.208895	-4.437109	63.077145	40.694562	11.709588	-9.531211	60.219429	39.530875
-0.405000	3.029614	-4.103828	101.268469	-0.098685	-0.202079	-0.042267	86.948928	1.403910	3.778151	15.339684	4.135894	-22.661060	-35.730335	37.721890	7.126391	51.094885	33.835952	24.946781	5.094457	50.692398	31.908514	15.287128	-4.481344	63.329288	40.785518	12.600192	-9.854388	60.122429	39.407906
-0.395000	3.029614	-4.103828	101.268469	-0.097064	-0.199891	-0.041220	87.862338	1.324399	4.761131	15.673932	4.385489	-22.415202	-35.493932	37.242308	7.142792	51.266310	33.946698	25.198926	5.161945	50.812919	32.011397	15.418674	-4.532536	63.434613	40.796695	13.527196	-10.100259	60.006564	39.276023
-0.385000	3.029614	-4.103828	101.268469	-0.094816	-0.197218	-0.039772	88.839099	1.203220	5.834158	16.263586	4.496243	-22.127119	-35.260871	36.540994	7.080757	51.445358	34.073126	25.526225	5.158774	50.712394	31.957534	15.594665	-4.573129	63.322062	40.695687	14.398627	-10.196356	59.845326	39.122499
-0.375000	3.029614	-4.103828	101.268469	-0.091809	-0.194023	-0.037818	89.774027	1.075076	6.934092	17.142827	4.515761	-21.803436	-35.060291	35.617563	6.893509	51.600805	34.198472	25.855218	5.076788	50.378195	31.744022	15.797735	-4.590915	62.966196	40.473261	15.136686	-10.100971	59.598536	38.926375
-0.365000	3.029614	-4.103828	101.268469	-0.087944	-0.190303	-0.035288	90.549901	1.024193	7.960220	18.264476	4.536094	-21.464138	-34.911678	34.524549	6.570824	51.715523	34.311143	26.109163	4.936683	49.851676	31.407608	16.003829	-4.584463	62.409163	40.153920	15.703093	-9.821724	59.230310	38.668235
-0.355000	3.029614	-4.103828	101.268469	-0.083170	-0.186091	-0.032163	91.077047	1.180390	8.776484	19.498837	4.669647	-21.141255	-34.818955	33.351037	6.149536	51.797383	34.410872	26.238235	4.781149	49.229314	31.017658	16.187394	-4.561616	61.761111	39.794609	16.113007	-9.418703	58.727897	38.340342
-0.345000	3.029614	-4.103828	101.268469	-0.077477	-0.181464	-0.028481	91.328868	1.690496	9.232306	20.669173	5.025842	-20.869007	-34.769635	32.187877	5.701260	51.876233	34.508164	26.234576	4.658524	48.645905	30.658415	16.326518	-4.532321	61.172748	39.469082	16.429164	-8.989785	58.111087	37.952004
-0.335000	3.029614	-4.103828	101.268469	-0.070895	-0.176528	-0.024321	91.355531	2.669840	9.201287	21.613075	5.696139	-20.669711	-34.740213	31.091795	5.302785	51.986361	34.616403	26.124797	4.604441	48.233676	30.402387	16.402739	-4.500971	60.785347	39.242324	16.735091	-8.641115	57.427295	37.527843
-0.325000	3.029614	-4.103828	101.268469	-0.063477	-0.171402	-0.019779	91.269792	4.151566	8.627491	22.245171	6.747163	-20.543070	-34.706684	30.065042	5.004336	52.143482	34.741171	25.946142	4.628949	48.066136	30.282196	16.395391	-4.463052	60.674597	39.144522	17.095451	-8.450971	56.735230	37.100372
-0.315000	3.029614	-4.103828	101.268469	-0.055303	-0.166204	-0.014942	91.211959	6.056520	7.562750	22.592431	8.217416	-20.465127	-34.656309	29.057817	4.811110	52.330069	34.873943	25.722457	4.713531	48.112227	30.273083	16.278587	-4.407607	60.809539	39.154756	17.518595	-8.439658	56.084804	36.700265
-0.305000	3.029614	-4.103828	101.268469	-0.046487	-0.161040	-0.009884	91.308389	8.200069	6.177949	22.782471	10.113335	-20.398054	-34.594892	27.989905	4.685557	52.500248	34.995473	25.455721	4.818465	48.229708	30.296834	16.031404	-4.323964	61.045505	39.201420	17.939195	-8.558962	55.500915	36.347597
-0.295000	3.029614	-4.103828	101.268469	-0.037178	-0.156015	-0.004659	91.638956	10.337831	4.737668	22.985758	12.403582	-20.305945	-34.544539	26.781159	4.567996	52.605633	35.088689	25.137658	4.897680	48.211118	30.249216	15.662816	-4.209640	61.161513	39.181701	18.235577	-8.709573	54.976372	36.046216
-0.285000	3.029614	-4.103828	101.268469	-0.027543	-0.151233	0.000693	92.225187	12.236101	3.540910	23.335840	15.013190	-20.168915	-34.531639	25.379133	4.406230	52.629300	35.153793	24.770102	4.915909	47.868509	30.041598	15.235992	-4.075831	60.937381	38.996931	18.283637	-8.783435	54.476233	35.782626
-0.275000	3.029614	-4.103828	101.268469	-0.017745	-0.146816	0.006138	93.042184	13.741050	2.846136	23.866238	17.819509	-19.990164	-34.572129	23.776599	4.182321	52.604851	35.214199	24.373919	4.861734	47.120859	29.640049	14.865689	-3.947272	60.246790	38.594303	18.028614	-8.714140	53.952295	35.530069
-0.265000	3.029614	-4.103828	101.268469	-0.007930	-0.142918	0.011638	94.046209	14.819846	2.806798	24.498031	20.651916	-19.795448	-34.665194	22.020234	3.926313	52.602847	35.305667	23.973843	4.750801	46.046231	29.087023	14.673447	-3.855395	59.130743	38.001102	17.540326	-8.510478	53.363279	35.257680
-0.255000	3.029614	-4.103828	101.268469	0.001774	-0.139721	0.017134	95.201243	15.558705	3.437724	25.086447	23.300000	-19.627550	-34.802398	20.217814	3.711386	52.688987	35.452423	23.568309	4.617353	44.880008	28.500273	14.717437	-3.827299	57.820861	37.338369	17.021857	-8.253903	52.696192	34.943763
-0.245000	3.029614	-4.103828	101.268469	0.011226	-0.137416	0.022535	96.487665	16.121577	4.617582	25.500205	25.537923	-19.538387	-34.988233	18.547096	3.631218	52.881707	35.645200	23.112605	4.498387	43.965105	28.052872	14.943810	-3.875622	56.700768	36.806631	16.765430	-8.059271	51.987071	34.591434
-0.235000	3.029614	-4.103828	101.268469	0.020252	-0.136165	0.027716	97.885703	16.687562	6.120279	25.686274	27.169400	-19.579672	-35.257765	17.257004	3.766293	53.141916	35.838062	22.542782	4.419231	43.673214	27.941129	15.206483	-3.994058	56.214271	36.644094	17.074668	-8.018256	51.339499	34.243087
-0.225000	3.029614	-4.103828	101.268469	0.028644	-0.136046	0.032533	99.341658	17.388886	7.664641	25.680722	28.084773	-19.791713	-35.675075	16.643941	4.150114	53.408399	35.970664	21.842964	4.388304	44.316249	28.344928	15.365229	-4.160439	56.743258	37.065128	18.183751	-8.153379	50.933294	33.986984
-0.215000	3.029614	-4.103828	101.268469	0.036180	-0.137019	0.036857	100.738900	18.266826	8.973068	25.560050	28.304717	-20.191349	-36.305988	16.994358	4.748100	53.660025	36.005700	21.123462	4.402284	46.064646	29.384634	15.418247	-4.346007	58.487177	38.194328	20.200217	-8.403514	51.008574	33.947324
-0.205000	3.029614	-4.103828	101.268469	0.042666	-0.138908	0.040611	101.899678	19.256429	9.829044	25.365592	27.978889	-20.764114	-37.176589	18.505010	5.460026	53.961563	35.958459	20.655073	4.455687	48.891117	31.083239	15.589800	-4.527156	61.382078	40.017938	23.087669	-8.645678	51.811938	34.252071
-0.195000	3.029614	-4.103828	101.268469	0.047967	-0.141436	0.043798	102.631375	20.204370	10.119724	25.051623	27.325973	-21.468122	-38.243851	21.210089	6.149440	54.453652	35.897373	20.817480	4.546381	52.558795	33.346975	16.303990	-4.694719	65.094177	42.374313	26.691771	-8.742082	53.508035	34.982593
-0.185000	3.029614	-4.103828	101.268469	0.052036	-0.144279	0.046497	102.803813	20.916657	9.849359	24.493214	26.539270	-22.252000	-39.402166	24.948014	6.691049	55.281252	35.912089	21.967722	4.672586	56.662445	35.975235	18.033831	-4.856136	69.100974	44.992886	30.797635	-8.591863	56.086409	36.122811
-0.175000	3.029614	-4.103828	101.268469	0.054922	-0.147141	0.048827	102.418074	21.223408	9.117031	23.550445	25.712114	-23.077489	-40.526362	29.387485	7.015620	56.497149	36.066919	24.288066	4.824478	60.713944	38.701459	21.089628	-5.028530	72.835597	47.569843	35.193141	-8.166543	59.312300	37.534601
-0.165000	3.029614	-4.103828	101.268469	0.056766	-0.149812	0.050897	101.622982	21.039792	8.066966	22.148107	24.831124	-23.930312	-41.524757	34.107159	7.130644	57.997753	36.367259	27.690973	4.978955	64.249161	41.255546	25.453876	-5.225775	75.839202	49.850639	39.709677	-7.516989	62.760875	38.980520
-0.155000	3.029614	-4.103828	101.268469	0.057787	-0.152197	0.052756	100.661766	20.400351	6.833274	20.322594	23.840538	-24.810593	-42.369039	38.698844	7.107442	59.532692	36.758108	31.829661	5.104338	66.926939	43.428653	30.750568	-5.447157	77.863682	51.686568	44.224952	-6.752624	65.934620	40.192695
-0.145000	3.029614	-4.103828	101.268469	0.058249	-0.154297	0.054372	99.773720	19.452054	5.503745	18.215060	22.730760	-25.711221	-43.086995	42.855796	7.044089	60.787810	37.153555	36.208986	5.173653	68.591201	45.116697	36.365669	-5.675009	78.893693	53.047053	48.636255	-6.003642	68.416687	40.960096
-0.135000	3.029614	-4.103828	101.268469	0.058414	-0.156174	0.055654	99.104649	18.408043	4.115888	16.026554	21.589287	-26.602727	-43.731151	46.419562	7.024599	61.499958	37.477598	40.344928	5.177654	69.277976	46.325432	41.657291	-5.882783	79.094477	53.991544	52.831055	-5.380948	69.991135	41.194114
